<svg xmlns="http://www.w3.org/2000/svg" version="1.1" xmlns:xlink="http://www.w3.org/1999/xlink" xmlns:svgjs="http://svgjs.dev/svgjs" width="100%" height="100%" viewBox="0 0 1000 600"><rect width="1000" height="600" x="0" y="0" fill="#191919"/><g><rect width="333.3333333333333" height="333.3333333333333" rx="13.333333333333334" ry="13.333333333333334" y="296.98023922883976" fill="#ffd230" transform="matrix(0.45494578636428934,0,0,0.4549457863642893,0,89.06580280633919)" x="274.75799560546875"/><path d="M422.66638431604 409.2130110788348L422.66638431604 518.3461350677967Q422.66638431604 525.5111061260386 424.5903117298272 529.2262763043861Q426.51423914361436 532.9082753204273 432.71724649496264 534.3346352996142Q438.9202538463109 535.7941664411079 451.0940704128608 535.7941664411079L451.0940704128608 535.7941664411079Q451.82383598360764 535.7941664411079 451.82383598360764 537.220526420295Q451.82383598360764 538.646886399482 451.0940704128608 538.646886399482L451.0940704128608 538.646886399482Q443.46470308232546 538.646886399482 434.5084892595231 538.4146882633353Q425.5522754367208 538.1824901271885 415.0370169855047 538.1824901271885L415.0370169855047 538.1824901271885Q407.142280356516 538.1824901271885 399.8777958113541 538.4146882633353Q392.58014010388547 538.646886399482 386.84152902483066 538.646886399482L386.84152902483066 538.646886399482Q386.3771327525372 538.646886399482 386.3771327525372 537.220526420295Q386.3771327525372 535.7941664411079 386.84152902483066 535.7941664411079L386.84152902483066 535.7941664411079Q395.69822936071296 535.7941664411079 399.9773092982741 534.6000045980676Q404.2895603981419 533.4058427550274 405.7159203773289 529.8233572259064Q407.142280356516 526.2408716967855 407.142280356516 519.3080987746903L407.142280356516 519.3080987746903L407.142280356516 408.7154436442347Q407.142280356516 401.7826707221396 405.7159203773289 398.3328698422454Q404.2895603981419 394.8830689623511 399.9773092982741 393.5562224700841Q395.69822936071296 392.2293759778171 386.84152902483066 392.2293759778171L386.84152902483066 392.2293759778171Q386.3771327525372 392.2293759778171 386.3771327525372 390.80301599863003Q386.3771327525372 389.37665601944303 386.84152902483066 389.37665601944303L386.84152902483066 389.37665601944303Q392.58014010388547 389.37665601944303 399.7451111621274 389.74153880481646Q406.91008222036925 390.1064215901899 414.80481884935796 390.1064215901899L414.80481884935796 390.1064215901899Q421.00782620070623 390.1064215901899 429.9640400235086 389.37665601944303Q438.9202538463109 388.6468904486962 448.00915231834 388.6468904486962L448.00915231834 388.6468904486962Q461.6093288640769 388.6468904486962 472.4894701006664 392.7269434124172Q483.3364401749492 396.7738252138316 489.8048168247509 405.36515625126054Q496.2400223122459 413.9896584509961 496.47222044839265 427.8220331328797L496.47222044839265 427.8220331328797Q496.47222044839265 440.4934171340297 491.8282577254581 449.5491444437521Q487.1511238402169 458.6380429157811 479.38907186045486 464.47616748175597Q471.6270198806928 470.3474632100375 462.3390944348237 473.20018316841157Q453.01799782664796 476.0860742890923 443.6969012184722 476.0860742890923L443.6969012184722 476.0860742890923Q440.8441812600981 476.0860742890923 437.85877665249734 475.82070499063894Q434.87337204489654 475.5885068544922 432.2196790603625 474.89191244605206L432.2196790603625 474.89191244605206Q431.29088651577564 474.6265431475986 431.62259813884236 473.1006696814916Q431.9874809242158 471.54162505307784 432.71724649496264 471.7738231892246L432.71724649496264 471.7738231892246Q434.87337204489654 472.238219461518 437.1290110817505 472.5035887599714Q439.3846501186044 472.73578689611816 441.30857753239155 472.73578689611816L441.30857753239155 472.73578689611816Q451.0940704128608 472.73578689611816 459.6854014502897 468.42353579625035Q468.30990365002526 464.1444558586892 473.55094729447995 455.1882420358869Q478.7919909389347 446.23202821308456 478.7919909389347 432.8308786411877L478.7919909389347 432.8308786411877Q478.7919909389347 419.69509836774427 474.0153435667734 410.7388845449419Q469.2386961946122 401.7826707221396 460.87956329333 397.00602334997836Q452.52043039204784 392.2293759778171 442.27054123928514 392.2293759778171L442.27054123928514 392.2293759778171Q434.3758046102964 392.2293759778171 430.1962381596553 393.0918261977906Q426.01667170901425 393.9211052554575 424.35811359368046 397.5035907845785Q422.66638431604 401.08607631369944 422.66638431604 409.2130110788348L422.66638431604 409.2130110788348Z " fill="#191919" transform="matrix(0.45494578636428934,0,0,0.4549457863642893,0,89.06580280633919)"/><path d="M726.5488192014416 410.6075100599604L726.5488192014416 516.2367794973392Q726.5488192014416 523.1717102567537 728.4109765349881 526.7676002801538Q730.2731338685345 530.3313841426308 736.2769859611758 531.711949062329Q742.2808380538171 533.1246201429506 754.0637991126371 533.1246201429506L754.0637991126371 533.1246201429506Q754.770134652948 533.1246201429506 754.770134652948 534.5051850626488Q754.770134652948 535.8857499823471 754.0637991126371 535.8857499823471L754.0637991126371 535.8857499823471Q746.6793821002975 535.8857499823471 738.0107186510295 535.6610068558846Q729.3420552017612 535.4362637294221 719.164402189102 535.4362637294221L719.164402189102 535.4362637294221Q711.5231358893767 535.4362637294221 704.4918866471926 535.6610068558846Q697.4285312440852 535.8857499823471 691.8741654043688 535.8857499823471L691.8741654043688 535.8857499823471Q691.4246791514438 535.8857499823471 691.4246791514438 534.5051850626488Q691.4246791514438 533.1246201429506 691.8741654043688 533.1246201429506L691.8741654043688 533.1246201429506Q700.4465103708674 533.1246201429506 704.5882051299623 531.9687983497147Q708.7620060499802 530.812976556479 710.1425709696784 527.3455111767718Q711.5231358893767 523.8780457970645 711.5231358893767 517.1678581641124L711.5231358893767 517.1678581641124L711.5231358893767 410.1259176461122Q711.5231358893767 403.4157300131602 710.1425709696784 400.07668927714576Q708.7620060499802 396.73764854113136 704.5882051299623 395.4534021042027Q700.4465103708674 394.16915566727414 691.8741654043688 394.16915566727414L691.8741654043688 394.16915566727414Q691.4246791514438 394.16915566727414 691.4246791514438 392.7885907475759Q691.4246791514438 391.4080258278776 691.8741654043688 391.4080258278776L691.8741654043688 391.4080258278776Q697.4285312440852 391.4080258278776 704.3634620034996 391.761193598033Q711.2983927629142 392.1143613681884 718.9396590626395 392.1143613681884L718.9396590626395 392.1143613681884Q724.9435111552807 392.1143613681884 733.612174604549 391.4080258278776Q742.2808380538171 390.70169028756686 751.077926146778 390.70169028756686L751.077926146778 390.70169028756686Q764.2414521252965 390.70169028756686 774.7722729081111 394.6507480811224Q785.2709875300025 398.5676997137547 791.5316889100295 406.8831953928675Q797.7602841291334 415.23079723290346 797.9850272555959 428.6190663378843L797.9850272555959 428.6190663378843Q797.9850272555959 440.8836198105526 793.4901647263457 449.6486017425904Q788.9631960361723 458.44568983555143 781.45035438014 464.09637415803735Q773.9375127241075 469.77916464144647 764.9477876656072 472.540294480843Q755.9259564461836 475.3335304811627 746.9041252267601 475.3335304811627L746.9041252267601 475.3335304811627Q744.1429953873635 475.3335304811627 741.2534409042742 475.076681193777Q738.3638864211848 474.8519380673145 735.7953935473276 474.177708687927L735.7953935473276 474.177708687927Q734.8964210414775 473.92085940054125 735.2174826507097 472.44397599807337Q735.570650420865 470.93498643468223 736.2769859611758 471.15972956114473L736.2769859611758 471.15972956114473Q738.3638864211848 471.6092158140698 740.5471053639635 471.8660651014555Q742.7303243067421 472.090808227918 744.5924816402886 472.090808227918L744.5924816402886 472.090808227918Q754.0637991126371 472.090808227918 762.37929479175 467.9170073079Q770.726896631786 463.7753125488052 775.799670057654 455.10664909953704Q780.872443483522 446.43798565026884 780.872443483522 433.46709663728984L780.872443483522 433.46709663728984Q780.872443483522 420.7530569116965 776.249156310579 412.08439346242835Q771.6258691376361 403.4157300131602 763.5351165849856 398.7924428402172Q755.4443640323354 394.16915566727414 745.5235603070619 394.16915566727414L745.5235603070619 394.16915566727414Q737.8822940073367 394.16915566727414 733.8369177310115 395.0039158512777Q729.7915414546862 395.80656987435816 728.1862334085256 399.27403525406544Q726.5488192014416 402.74150063377266 726.5488192014416 410.6075100599604L726.5488192014416 410.6075100599604ZM907.5633544865302 472.3155513543805L842.3878478124027 472.3155513543805L844.6994913988742 467.6922641814375L905.9580464403693 467.6922641814375L907.5633544865302 472.3155513543805ZM959.125848929214 533.1246201429506L959.125848929214 533.1246201429506Q960.0248214350643 533.1246201429506 960.0248214350643 534.5051850626488Q960.0248214350643 535.8857499823471 959.125848929214 535.8857499823471L959.125848929214 535.8857499823471Q952.415661296262 535.8857499823471 945.4807305368477 535.4362637294221Q938.5457997774329 534.9546713155738 932.0603552709435 534.9546713155738L932.0603552709435 534.9546713155738Q924.9006813850665 534.9546713155738 919.5710586718126 535.4362637294221Q914.2735421194823 535.8857499823471 907.7880976129927 535.8857499823471L907.7880976129927 535.8857499823471Q906.8570189462193 535.8857499823471 906.8570189462193 534.5051850626488Q906.8570189462193 533.1246201429506 907.7880976129927 533.1246201429506L907.7880976129927 533.1246201429506Q920.052651085661 533.1246201429506 923.03852405152 529.5287301195503Q926.0565031783021 525.9328400961502 921.4332160053591 516.0120363708767L921.4332160053591 516.0120363708767L870.1275708500609 407.5895309331782L875.9066798162396 400.4298570473012L831.0543730065078 506.54071889852816Q825.2752640403289 520.6353235438197 830.348037466197 526.8639187629235Q835.4529170529884 533.1246201429506 850.4786003650531 533.1246201429506L850.4786003650531 533.1246201429506Q851.6344221582888 533.1246201429506 851.6344221582888 534.5051850626488Q851.6344221582888 535.8857499823471 850.4786003650531 535.8857499823471L850.4786003650531 535.8857499823471Q843.5436696056386 535.8857499823471 837.7645606394599 535.4362637294221Q831.985451673281 534.9546713155738 823.1883635803199 534.9546713155738L823.1883635803199 534.9546713155738Q814.8728679012072 534.9546713155738 809.8964129581088 535.4362637294221Q804.9199580150105 535.8857499823471 797.7602841291334 535.8857499823471L797.7602841291334 535.8857499823471Q796.82920546236 535.8857499823471 796.82920546236 534.5051850626488Q796.82920546236 533.1246201429506 797.7602841291334 533.1246201429506L797.7602841291334 533.1246201429506Q803.9888793482371 533.1246201429506 808.6121665211801 530.6845519127861Q813.2354536941232 528.2444836826218 817.2808299704484 522.1443131072108Q821.3262062467734 516.0120363708767 826.2063427071023 504.45381843851914L826.2063427071023 504.45381843851914L874.9756011494665 389.3211253678686Q875.4250874023915 388.6468959884811 876.5809091956273 388.6468959884811Q877.736730988863 388.6468959884811 877.9614741153255 389.3211253678686L877.9614741153255 389.3211253678686L932.5419476847917 504.22907531205664Q937.8394642371222 515.5304439570284 942.0132651571403 521.8874638198251Q946.1549599162352 528.2444836826218 950.2003361925601 530.6845519127861Q954.2457124688854 533.1246201429506 959.125848929214 533.1246201429506ZM1087.871554231308 535.8857499823471L1087.871554231308 535.8857499823471Q1083.9546025986756 535.8857499823471 1075.2859391494076 526.9923434066163Q1066.6172757001393 518.0989368308857 1054.2242975837783 501.33952082896724Q1041.8634256283403 484.5801048270488 1026.6129991898129 461.6884120887962L1026.6129991898129 461.6884120887962L1039.5517820418688 457.7393542952407Q1059.2007525268766 485.73592662028454 1072.974295562936 502.23849333481724Q1086.715732438072 518.7731662102732 1097.2465532208869 525.9328400961502Q1107.7452678427783 533.1246201429506 1117.4734346025127 533.1246201429506L1117.4734346025127 533.1246201429506Q1118.1476639819 533.1246201429506 1118.1476639819 534.5051850626488Q1118.1476639819 535.8857499823471 1117.4734346025127 535.8857499823471L1117.4734346025127 535.8857499823471Q1105.915216670155 535.8857499823471 1098.627118140585 535.8857499823471Q1091.3390196110151 535.8857499823471 1087.871554231308 535.8857499823471ZM1029.6309783165952 390.70169028756686L1029.6309783165952 390.70169028756686Q1048.1241270083672 390.70169028756686 1057.9486122508713 399.1456106103725Q1067.773097493375 407.5895309331782 1067.773097493375 421.23464932554475L1067.773097493375 421.23464932554475Q1067.773097493375 433.72394592467555 1060.4849989638053 443.773174293642Q1053.1969004342352 453.8224026626084 1041.2855147317223 459.6015116287872Q1029.3741290292094 465.380620594966 1015.279524383918 465.380620594966L1015.279524383918 465.380620594966Q1012.9678807974465 465.380620594966 1010.0783263143569 465.1558774685035Q1007.1887718312676 464.93113434204093 1004.877128244796 464.67428505465523L1004.877128244796 464.67428505465523L1004.877128244796 517.1678581641124Q1004.877128244796 523.8780457970645 1006.1613746817247 527.3455111767718Q1007.4135149577301 530.812976556479 1011.7157405214409 531.9687983497147Q1015.9858599242286 533.1246201429506 1024.5260987298038 533.1246201429506L1024.5260987298038 533.1246201429506Q1025.2324342701147 533.1246201429506 1025.2324342701147 534.5051850626488Q1025.2324342701147 535.8857499823471 1024.5260987298038 535.8857499823471L1024.5260987298038 535.8857499823471Q1018.9717328900877 535.8857499823471 1012.1652267743659 535.6610068558846Q1005.3587206586442 535.4362637294221 997.267968105994 535.4362637294221L997.267968105994 535.4362637294221Q989.6267018062688 535.4362637294221 982.5633464031614 535.6610068558846Q975.5320971609772 535.8857499823471 969.7529881947983 535.8857499823471L969.7529881947983 535.8857499823471Q969.2713957809501 535.8857499823471 969.2713957809501 534.5051850626488Q969.2713957809501 533.1246201429506 969.7529881947983 533.1246201429506L969.7529881947983 533.1246201429506Q978.2932270003737 533.1246201429506 982.5633464031614 531.9687983497147Q986.8655719668723 530.812976556479 988.4708800130331 527.3455111767718Q990.0761880591938 523.8780457970645 990.0761880591938 517.1678581641124L990.0761880591938 517.1678581641124L990.0761880591938 410.1259176461122Q990.0761880591938 403.4157300131602 988.5993046567257 400.07668927714576Q987.0903150933348 396.73764854113136 982.9165141733167 395.4534021042027Q978.7748194142218 394.16915566727414 970.2024744477235 394.16915566727414L970.2024744477235 394.16915566727414Q969.528245068336 394.16915566727414 969.528245068336 392.7885907475759Q969.528245068336 391.4080258278776 970.2024744477235 391.4080258278776L970.2024744477235 391.4080258278776Q975.7568402874397 391.4080258278776 982.6917710468542 391.761193598033Q989.6267018062688 392.1143613681884 997.267968105994 392.1143613681884L997.267968105994 392.1143613681884Q1004.427641991871 392.1143613681884 1013.7705348205268 391.4080258278776Q1023.1455338101057 390.70169028756686 1029.6309783165952 390.70169028756686ZM1052.0410786409996 427.9448369584968L1052.0410786409996 427.9448369584968Q1052.0410786409996 415.23079723290346 1048.2204454911368 407.8142740596407Q1044.3998123412741 400.4298570473012 1037.4648815818598 397.31555943774924Q1030.5299508224452 394.16915566727414 1020.8338902236342 394.16915566727414L1020.8338902236342 394.16915566727414Q1012.2936514180587 394.16915566727414 1008.5693367509659 397.1871347940564Q1004.877128244796 400.20511392083864 1004.877128244796 410.6075100599604L1004.877128244796 410.6075100599604L1004.877128244796 459.1520253758622Q1008.1198504980409 459.6015116287872 1011.8120590042106 459.8262547552497Q1015.5042675103803 460.0509978817122 1018.5222466371627 460.0509978817122L1018.5222466371627 460.0509978817122Q1037.2401384553973 460.0509978817122 1044.65666162866 451.86392684629226Q1052.0410786409996 443.6447496499491 1052.0410786409996 427.9448369584968ZM1243.45801006521 535.8857499823471L1243.45801006521 535.8857499823471Q1239.5089522716544 535.8857499823471 1230.8402888223861 526.9923434066163Q1222.171625373118 518.0989368308857 1209.8107534176802 501.33952082896724Q1197.4498814622423 484.5801048270488 1182.199455023715 461.6884120887962L1182.199455023715 461.6884120887962L1195.1382378757708 457.7393542952407Q1214.7872083607785 485.73592662028454 1228.5286452359146 502.23849333481724Q1242.302188271974 518.7731662102732 1252.8009028938654 525.9328400961502Q1263.3317236766802 533.1246201429506 1273.0277842754913 533.1246201429506L1273.0277842754913 533.1246201429506Q1273.734119815802 533.1246201429506 1273.734119815802 534.5051850626488Q1273.734119815802 535.8857499823471 1273.0277842754913 535.8857499823471L1273.0277842754913 535.8857499823471Q1261.4695663431337 535.8857499823471 1254.1814678135638 535.8857499823471Q1246.925475444917 535.8857499823471 1243.45801006521 535.8857499823471ZM1185.1853279895738 390.70169028756686L1185.1853279895738 390.70169028756686Q1203.678476681346 390.70169028756686 1213.5029619238499 399.1456106103725Q1223.3274471663537 407.5895309331782 1223.3274471663537 421.23464932554475L1223.3274471663537 421.23464932554475Q1223.3274471663537 433.72394592467555 1216.0393486367839 443.773174293642Q1208.7833562681371 453.8224026626084 1196.8719705656242 459.6015116287872Q1184.9605848631113 465.380620594966 1170.86598021782 465.380620594966L1170.86598021782 465.380620594966Q1168.5543366313484 465.380620594966 1165.6647821482588 465.1558774685035Q1162.7752276651695 464.93113434204093 1160.463584078698 464.67428505465523L1160.463584078698 464.67428505465523L1160.463584078698 517.1678581641124Q1160.463584078698 523.8780457970645 1161.7157243547035 527.3455111767718Q1162.999970791632 530.812976556479 1167.2700901944197 531.9687983497147Q1171.5402095972072 533.1246201429506 1180.112554563706 533.1246201429506L1180.112554563706 533.1246201429506Q1180.7867839430935 533.1246201429506 1180.7867839430935 534.5051850626488Q1180.7867839430935 535.8857499823471 1180.112554563706 535.8857499823471L1180.112554563706 535.8857499823471Q1174.5581887239896 535.8857499823471 1167.7516826082679 535.6610068558846Q1160.9130703316232 535.4362637294221 1152.8223177789728 535.4362637294221L1152.8223177789728 535.4362637294221Q1145.2131576401707 535.4362637294221 1138.1498022370633 535.6610068558846Q1131.086446833956 535.8857499823471 1125.3073378677773 535.8857499823471L1125.3073378677773 535.8857499823471Q1124.857851614852 535.8857499823471 1124.857851614852 534.5051850626488Q1124.857851614852 533.1246201429506 1125.3073378677773 533.1246201429506L1125.3073378677773 533.1246201429506Q1133.8796828342756 533.1246201429506 1138.1498022370633 531.9687983497147Q1142.4199216398508 530.812976556479 1144.057335846935 527.3455111767718Q1145.6626438930957 523.8780457970645 1145.6626438930957 517.1678581641124L1145.6626438930957 517.1678581641124L1145.6626438930957 410.1259176461122Q1145.6626438930957 403.4157300131602 1144.1536543297045 400.07668927714576Q1142.6446647663133 396.73764854113136 1138.5029700072187 395.4534021042027Q1134.3291690872006 394.16915566727414 1125.7889302816252 394.16915566727414L1125.7889302816252 394.16915566727414Q1125.0825947413146 394.16915566727414 1125.0825947413146 392.7885907475759Q1125.0825947413146 391.4080258278776 1125.7889302816252 391.4080258278776L1125.7889302816252 391.4080258278776Q1131.3432961213416 391.4080258278776 1138.2782268807562 391.761193598033Q1145.2131576401707 392.1143613681884 1152.8223177789728 392.1143613681884L1152.8223177789728 392.1143613681884Q1159.9819916648498 392.1143613681884 1169.3569906544287 391.4080258278776Q1178.7319896440076 390.70169028756686 1185.1853279895738 390.70169028756686ZM1207.6275344749015 427.9448369584968L1207.6275344749015 427.9448369584968Q1207.6275344749015 415.23079723290346 1203.8069013250388 407.8142740596407Q1199.9862681751763 400.4298570473012 1193.0513374157617 397.31555943774924Q1186.1164066563472 394.16915566727414 1176.420346057536 394.16915566727414L1176.420346057536 394.16915566727414Q1167.8480010910375 394.16915566727414 1164.1557925848679 397.1871347940564Q1160.463584078698 400.20511392083864 1160.463584078698 410.6075100599604L1160.463584078698 410.6075100599604L1160.463584078698 459.1520253758622Q1163.7063063319426 459.6015116287872 1167.3985148381125 459.8262547552497Q1171.0907233442824 460.0509978817122 1174.1087024710646 460.0509978817122L1174.1087024710646 460.0509978817122Q1192.8265942892992 460.0509978817122 1200.2110113016388 451.86392684629226Q1207.6275344749015 443.6447496499491 1207.6275344749015 427.9448369584968ZM1402.9614175317442 517.1678581641124L1402.9614175317442 410.6075100599604Q1402.9614175317442 403.8973224270084 1401.5487464511227 400.4298570473012Q1400.1681815314246 396.96239166759386 1395.8980621286369 395.5818267478956Q1391.6279427258492 394.16915566727414 1382.6061115064256 394.16915566727414L1382.6061115064256 394.16915566727414Q1381.8997759661147 394.16915566727414 1381.8997759661147 392.7885907475759Q1381.8997759661147 391.4080258278776 1382.6061115064256 391.4080258278776L1382.6061115064256 391.4080258278776Q1388.1604773461418 391.4080258278776 1395.0954081055565 391.761193598033Q1402.0303388649709 392.1143613681884 1410.5705776705463 392.1143613681884L1410.5705776705463 392.1143613681884Q1418.2118439702713 392.1143613681884 1425.3715178561483 391.761193598033Q1432.5311917420254 391.4080258278776 1437.8608144552793 391.4080258278776L1437.8608144552793 391.4080258278776Q1438.5350438346668 391.4080258278776 1438.5350438346668 392.7885907475759Q1438.5350438346668 394.16915566727414 1437.8608144552793 394.16915566727414L1437.8608144552793 394.16915566727414Q1429.2884694887807 394.16915566727414 1424.9220316032233 395.4534021042027Q1420.523487556743 396.73764854113136 1419.1429226370446 400.07668927714576Q1417.7302515564234 403.4157300131602 1417.7302515564234 410.1259176461122L1417.7302515564234 410.1259176461122L1417.7302515564234 517.1678581641124Q1417.7302515564234 523.8780457970645 1419.1429226370446 527.3455111767718Q1420.523487556743 530.812976556479 1424.9220316032233 531.9687983497147Q1429.2884694887807 533.1246201429506 1437.8608144552793 533.1246201429506L1437.8608144552793 533.1246201429506Q1438.5350438346668 533.1246201429506 1438.5350438346668 534.5051850626488Q1438.5350438346668 535.8857499823471 1437.8608144552793 535.8857499823471L1437.8608144552793 535.8857499823471Q1432.5311917420254 535.8857499823471 1425.3715178561483 535.6610068558846Q1418.2118439702713 535.4362637294221 1410.5705776705463 535.4362637294221L1410.5705776705463 535.4362637294221Q1402.0303388649709 535.4362637294221 1395.0954081055565 535.6610068558846Q1388.1604773461418 535.8857499823471 1382.6061115064256 535.8857499823471L1382.6061115064256 535.8857499823471Q1381.8997759661147 535.8857499823471 1381.8997759661147 534.5051850626488Q1381.8997759661147 533.1246201429506 1382.6061115064256 533.1246201429506L1382.6061115064256 533.1246201429506Q1391.6279427258492 533.1246201429506 1395.8980621286369 531.9687983497147Q1400.1681815314246 530.812976556479 1401.5487464511227 527.3455111767718Q1402.9614175317442 523.8780457970645 1402.9614175317442 517.1678581641124L1402.9614175317442 517.1678581641124ZM1409.4147558773104 463.06897700849447L1306.0971300264032 463.06897700849447L1306.0971300264032 458.22094670908893L1409.4147558773104 458.22094670908893L1409.4147558773104 463.06897700849447ZM1299.3869423934511 517.1678581641124L1299.3869423934511 517.1678581641124L1299.3869423934511 410.1259176461122Q1299.3869423934511 403.4157300131602 1297.8779528300602 400.07668927714576Q1296.368963266669 396.73764854113136 1292.0988438638813 395.4534021042027Q1287.8287244610935 394.16915566727414 1279.2884856555183 394.16915566727414L1279.2884856555183 394.16915566727414Q1278.80689324167 394.16915566727414 1278.80689324167 392.7885907475759Q1278.80689324167 391.4080258278776 1279.2884856555183 391.4080258278776L1279.2884856555183 391.4080258278776Q1284.8107453343114 391.4080258278776 1291.8741007374188 391.761193598033Q1298.9374561405261 392.1143613681884 1306.5466162793282 392.1143613681884L1306.5466162793282 392.1143613681884Q1315.1189612458268 392.1143613681884 1322.0538920052413 391.761193598033Q1328.9888227646557 391.4080258278776 1334.511082443449 391.4080258278776L1334.511082443449 391.4080258278776Q1334.992674857297 391.4080258278776 1334.992674857297 392.7885907475759Q1334.992674857297 394.16915566727414 1334.511082443449 394.16915566727414L1334.511082443449 394.16915566727414Q1325.9708436378737 394.16915566727414 1321.572299591393 395.5818267478956Q1317.1737555449126 396.96239166759386 1315.6968721424446 400.4298570473012Q1314.1878825790536 403.8973224270084 1314.1878825790536 410.6075100599604L1314.1878825790536 410.6075100599604L1314.1878825790536 517.1678581641124Q1314.1878825790536 523.8780457970645 1315.5684474987518 527.3455111767718Q1316.94901241845 530.812976556479 1321.4759811086233 531.9687983497147Q1325.9708436378737 533.1246201429506 1334.511082443449 533.1246201429506L1334.511082443449 533.1246201429506Q1334.992674857297 533.1246201429506 1334.992674857297 534.5051850626488Q1334.992674857297 535.8857499823471 1334.511082443449 535.8857499823471L1334.511082443449 535.8857499823471Q1328.73197347727 535.8857499823471 1321.9254673615483 535.6610068558846Q1315.1189612458268 535.4362637294221 1306.5466162793282 535.4362637294221L1306.5466162793282 535.4362637294221Q1298.9374561405261 535.4362637294221 1291.745676093726 535.6610068558846Q1284.5860022078489 535.8857499823471 1279.0316363681325 535.8857499823471L1279.0316363681325 535.8857499823471Q1278.5821501152075 535.8857499823471 1278.5821501152075 534.5051850626488Q1278.5821501152075 533.1246201429506 1279.0316363681325 533.1246201429506L1279.0316363681325 533.1246201429506Q1287.603981334631 533.1246201429506 1292.0025253811116 531.9687983497147Q1296.368963266669 530.812976556479 1297.8779528300602 527.3455111767718Q1299.3869423934511 523.8780457970645 1299.3869423934511 517.1678581641124ZM1553.2182506523923 535.8857499823471L1553.2182506523923 535.8857499823471L1456.3539631470514 535.8857499823471Q1455.8723707332033 535.8857499823471 1455.8723707332033 534.5051850626488Q1455.8723707332033 533.1246201429506 1456.3539631470514 533.1246201429506L1456.3539631470514 533.1246201429506Q1464.8942019526266 533.1246201429506 1469.0680028726447 531.9687983497147Q1473.2096976317396 530.812976556479 1474.7186871951305 527.3455111767718Q1476.2276767585217 523.8780457970645 1476.2276767585217 517.1678581641124L1476.2276767585217 517.1678581641124L1476.2276767585217 410.1259176461122Q1476.2276767585217 403.4157300131602 1474.7186871951305 400.07668927714576Q1473.2096976317396 396.73764854113136 1469.0680028726447 395.4534021042027Q1464.8942019526266 394.16915566727414 1456.3539631470514 394.16915566727414L1456.3539631470514 394.16915566727414Q1455.8723707332033 394.16915566727414 1455.8723707332033 392.7885907475759Q1455.8723707332033 391.4080258278776 1456.3539631470514 391.4080258278776L1456.3539631470514 391.4080258278776L1549.2691928588367 391.4080258278776Q1551.356093318846 391.4080258278776 1551.356093318846 393.49492628788664L1551.356093318846 393.49492628788664L1551.805579571771 421.90887870493225Q1551.805579571771 422.615214245243 1550.5534392957657 422.7436388889359Q1549.2691928588367 422.8399573717055 1549.2691928588367 422.165727992318L1549.2691928588367 422.165727992318Q1548.5949634794495 409.67643139318716 1541.7563512028046 402.9662437602352Q1534.9498450870828 396.25605612728316 1524.0658565341128 396.25605612728316L1524.0658565341128 396.25605612728316L1509.9712518888211 396.25605612728316Q1502.1052424626332 396.25605612728316 1498.0598661863082 397.4118779205189Q1494.0144899099832 398.5676997137547 1492.5376065075152 401.81042196699946Q1491.028616944124 405.0531442202442 1491.028616944124 411.281739439348L1491.028616944124 411.281739439348L1491.028616944124 516.2367794973392Q1491.028616944124 522.2406315899805 1492.5376065075152 525.4833538432252Q1494.0144899099832 528.72607609647 1497.8351230598457 529.8818978897058Q1501.6557562097082 531.0377196829415 1509.2970225094336 531.0377196829415L1509.2970225094336 531.0377196829415L1527.7901712012058 531.0377196829415Q1538.8667967197148 531.0377196829415 1546.3796383757476 523.0432856130609Q1553.8924800317798 515.0809577041034 1556.2041236182515 501.43583931173686L1556.2041236182515 501.43583931173686Q1556.2041236182515 500.76160993234936 1557.5846885379497 500.98635305881186Q1558.9973596185714 501.2110961852744 1558.9973596185714 501.9174317255851L1558.9973596185714 501.9174317255851Q1558.0662809517978 507.9212838182264 1557.48837005518 516.4615226238018Q1556.910459158562 525.0338675903002 1556.910459158562 532.4182846026398L1556.910459158562 532.4182846026398Q1556.910459158562 535.8857499823471 1553.2182506523923 535.8857499823471ZM1540.2473616394132 482.01161195319156L1540.2473616394132 482.01161195319156Q1540.2473616394132 471.8660651014555 1535.3030128572382 467.46752105497495Q1530.3265579141398 463.06897700849447 1518.7683399817822 463.06897700849447L1518.7683399817822 463.06897700849447L1484.0936861847097 463.06897700849447L1484.0936861847097 458.22094670908893L1519.4425693611697 458.22094670908893Q1530.5513010406023 458.22094670908893 1535.3030128572382 454.4003135592263Q1540.0226185129509 450.5796804093637 1540.0226185129509 442.03944160378836L1540.0226185129509 442.03944160378836Q1540.0226185129509 441.5578491899401 1541.4031834326493 441.5578491899401Q1542.8158545132706 441.5578491899401 1542.8158545132706 442.03944160378836L1542.8158545132706 442.03944160378836Q1542.8158545132706 448.97437236320286 1542.6874298695775 452.7950055130655Q1542.559005225885 456.5835325020049 1542.559005225885 460.75733342202295L1542.559005225885 460.75733342202295Q1542.559005225885 466.0869561352767 1542.8158545132706 471.15972956114473Q1543.0405976397328 476.2325029870128 1543.0405976397328 482.01161195319156L1543.0405976397328 482.01161195319156Q1543.0405976397328 482.49320436703977 1541.6600327200347 482.49320436703977Q1540.2473616394132 482.49320436703977 1540.2473616394132 482.01161195319156ZM1604.0744095547655 418.441413325225L1604.0744095547655 418.441413325225Q1604.0744095547655 427.9448369584968 1608.7940152104784 434.7513430742184Q1613.545727027114 441.5578491899401 1620.9301440394536 446.66272877673134Q1628.3466672127165 451.7355022025994 1636.6621628918292 456.8403817893907L1636.6621628918292 456.8403817893907Q1645.2024016974046 461.6884120887962 1653.1968357672852 467.24277792851245Q1661.1591636762428 472.76503760730554 1666.3603617458034 480.4063039070308Q1671.5615598153645 488.04757020675606 1671.5615598153645 499.1241957252654L1671.5615598153645 499.1241957252654Q1671.5615598153645 510.23292740469793 1666.007193975648 519.1263339804286Q1660.452828135932 528.0197405561593 1649.9541135140403 533.3493632694131Q1639.4232927312257 538.6468798217436 1623.9481231662357 538.6468798217436L1623.9481231662357 538.6468798217436Q1618.3937573265198 538.6468798217436 1612.9678161304964 537.8442257986632Q1607.541874934473 537.0415717755828 1602.083827577526 535.1794144420363Q1596.6578863815027 533.3493632694131 1591.3603698291722 530.5561272690933L1591.3603698291722 530.5561272690933Q1590.2045480359366 529.8818978897058 1589.851380265781 528.8223945792397Q1589.498212495626 527.7949974296968 1589.2734693691632 526.189689383536L1589.2734693691632 526.189689383536L1586.2554902423808 494.72565167878486Q1586.0307471159185 493.5698298855491 1587.3149935528472 493.4735114027795Q1588.5671338288525 493.3450867590866 1588.791876955315 494.27616542585986L1588.791876955315 494.27616542585986Q1590.4292911623988 501.2110961852744 1593.415164128258 508.3707700711514Q1596.4331432550402 515.5304439570284 1601.2811735544456 521.566402210593Q1606.1292038538513 527.5702543032343 1613.064134613266 531.262462809404Q1619.9990653726804 534.9546713155738 1629.2456397185665 534.9546713155738L1629.2456397185665 534.9546713155738Q1635.9558273515186 534.9546713155738 1642.312847214315 532.4182846026398Q1648.6698670771116 529.8818978897058 1652.715243353437 524.102788923527Q1656.760619629762 518.3236799573482 1656.760619629762 508.3707700711514L1656.760619629762 508.3707700711514Q1656.760619629762 497.0372952652564 1651.7841646866636 489.524453609224Q1646.8398159044884 482.01161195319156 1639.1985496047632 476.48935227439847Q1631.5572833050378 470.93498643468223 1623.0170444994628 466.0869561352767L1623.0170444994628 466.0869561352767Q1614.9262919468124 460.98207654848545 1607.41345029078 455.6845599961549Q1599.9006086347474 450.3549372829011 1595.1488968181116 443.06683875333124Q1590.4292911623988 435.77874022376136 1590.4292911623988 424.9268578317145L1590.4292911623988 424.9268578317145Q1590.4292911623988 412.66230435904623 1596.6578863815027 404.6999764500888Q1602.9185877615296 396.73764854113136 1612.8393914868034 392.7885907475759Q1622.7923013730003 388.8716391149436 1633.4194406385845 388.8716391149436L1633.4194406385845 388.8716391149436Q1639.9048851450739 388.8716391149436 1646.8398159044884 390.12377939094904Q1653.774746663903 391.4080258278776 1660.452828135932 394.42600495465985L1660.452828135932 394.42600495465985Q1662.3149854694782 395.1002343340474 1663.1176394925587 396.1597376445135Q1663.920293515639 397.1871347940564 1663.920293515639 398.3429565872922L1663.920293515639 398.3429565872922L1665.557707722723 424.70211470525203Q1665.557707722723 425.63319337202523 1664.4018859294874 425.7295118547949Q1663.2460641362518 425.8579364984878 1662.7644717224034 424.9268578317145L1662.7644717224034 424.9268578317145Q1662.3149854694782 420.3035706587715 1660.2280850094694 414.65288633628563Q1658.1411845494604 408.97009585287645 1654.224232916828 403.8973224270084Q1650.3072812841958 398.7924428402172 1644.2713230306313 395.5818267478956Q1638.26747093799 392.3391044946509 1629.7272321324147 392.3391044946509L1629.7272321324147 392.3391044946509Q1620.705400912991 392.3391044946509 1615.0547165905052 396.1597376445135Q1609.3719261070962 399.94826463345294 1606.7071147504691 405.85579824332456Q1604.0744095547655 411.7633318531962 1604.0744095547655 418.441413325225ZM1730.0589850174629 410.6075100599604L1730.0589850174629 517.1678581641124Q1730.0589850174629 523.8780457970645 1731.4395499371612 527.3455111767718Q1732.8201148568596 530.812976556479 1737.0902342596473 531.9687983497147Q1741.3603536624346 533.1246201429506 1749.7079555024707 533.1246201429506L1749.7079555024707 533.1246201429506Q1750.3821848818584 533.1246201429506 1750.3821848818584 534.5051850626488Q1750.3821848818584 535.8857499823471 1749.7079555024707 535.8857499823471L1749.7079555024707 535.8857499823471Q1744.1535896627543 535.8857499823471 1737.3149773861096 535.6610068558846Q1730.5084712703879 535.4362637294221 1722.1929755912752 535.4362637294221L1722.1929755912752 535.4362637294221Q1714.5517092915497 535.4362637294221 1707.5204600493657 535.6610068558846Q1700.4571046462584 535.8857499823471 1694.902738806542 535.8857499823471L1694.902738806542 535.8857499823471Q1694.2285094271547 535.8857499823471 1694.2285094271547 534.5051850626488Q1694.2285094271547 533.1246201429506 1694.902738806542 533.1246201429506L1694.902738806542 533.1246201429506Q1703.2182344856546 533.1246201429506 1707.6167785321354 531.9687983497147Q1712.0153225786157 530.812976556479 1713.395887498314 527.3455111767718Q1714.7764524180125 523.8780457970645 1714.7764524180125 517.1678581641124L1714.7764524180125 517.1678581641124L1714.7764524180125 410.1259176461122Q1714.7764524180125 403.4157300131602 1713.395887498314 400.07668927714576Q1712.0153225786157 396.73764854113136 1707.6167785321354 395.4534021042027Q1703.2182344856546 394.16915566727414 1694.902738806542 394.16915566727414L1694.902738806542 394.16915566727414Q1694.2285094271547 394.16915566727414 1694.2285094271547 392.7885907475759Q1694.2285094271547 391.4080258278776 1694.902738806542 391.4080258278776L1694.902738806542 391.4080258278776Q1700.4571046462584 391.4080258278776 1707.5204600493657 391.761193598033Q1714.5517092915497 392.1143613681884 1722.1929755912752 392.1143613681884L1722.1929755912752 392.1143613681884Q1730.5084712703879 392.1143613681884 1737.4434020298027 391.761193598033Q1744.378332789217 391.4080258278776 1749.7079555024707 391.4080258278776L1749.7079555024707 391.4080258278776Q1750.3821848818584 391.4080258278776 1750.3821848818584 392.7885907475759Q1750.3821848818584 394.16915566727414 1749.7079555024707 394.16915566727414L1749.7079555024707 394.16915566727414Q1741.3603536624346 394.16915566727414 1737.0902342596473 395.5818267478956Q1732.8201148568596 396.96239166759386 1731.4395499371612 400.4298570473012Q1730.0589850174629 403.8973224270084 1730.0589850174629 410.6075100599604L1730.0589850174629 410.6075100599604ZM1870.8123945048392 472.3155513543805L1805.636887830712 472.3155513543805L1807.9485314171834 467.6922641814375L1869.2070864586785 467.6922641814375L1870.8123945048392 472.3155513543805ZM1922.3748889475232 533.1246201429506L1922.3748889475232 533.1246201429506Q1923.3059676142966 533.1246201429506 1923.3059676142966 534.5051850626488Q1923.3059676142966 535.8857499823471 1922.3748889475232 535.8857499823471L1922.3748889475232 535.8857499823471Q1915.6647013145712 535.8857499823471 1908.7297705551568 535.4362637294221Q1901.794839795742 534.9546713155738 1895.341501450176 534.9546713155738L1895.341501450176 534.9546713155738Q1888.1497214033757 534.9546713155738 1882.8522048510454 535.4362637294221Q1877.5225821377912 535.8857499823471 1871.0692437922253 535.8857499823471L1871.0692437922253 535.8857499823471Q1870.138165125452 535.8857499823471 1870.138165125452 534.5051850626488Q1870.138165125452 533.1246201429506 1871.0692437922253 533.1246201429506L1871.0692437922253 533.1246201429506Q1883.3016911039704 533.1246201429506 1886.3196702307523 529.5287301195503Q1889.3055431966113 525.9328400961502 1884.6822560236683 516.0120363708767L1884.6822560236683 516.0120363708767L1833.3766108683699 407.5895309331782L1839.155719834549 400.4298570473012L1794.303413024817 506.54071889852816Q1788.5243040586379 520.6353235438197 1793.6291836454293 526.8639187629235Q1798.7019570712973 533.1246201429506 1813.7276403833625 533.1246201429506L1813.7276403833625 533.1246201429506Q1814.8834621765982 533.1246201429506 1814.8834621765982 534.5051850626488Q1814.8834621765982 535.8857499823471 1813.7276403833625 535.8857499823471L1813.7276403833625 535.8857499823471Q1806.7927096239478 535.8857499823471 1801.013600657769 535.4362637294221Q1795.2344916915904 534.9546713155738 1786.4374035986293 534.9546713155738L1786.4374035986293 534.9546713155738Q1778.1219079195166 534.9546713155738 1773.1454529764183 535.4362637294221Q1768.2011041942428 535.8857499823471 1761.0093241474424 535.8857499823471L1761.0093241474424 535.8857499823471Q1760.1103516415924 535.8857499823471 1760.1103516415924 534.5051850626488Q1760.1103516415924 533.1246201429506 1761.0093241474424 533.1246201429506L1761.0093241474424 533.1246201429506Q1767.27002552747 533.1246201429506 1771.893312700413 530.6845519127861Q1776.516599873356 528.2444836826218 1780.561976149681 522.1443131072108Q1784.607352426006 516.0120363708767 1789.4553827254113 504.45381843851914L1789.4553827254113 504.45381843851914L1838.2246411677756 389.3211253678686Q1838.706233581624 388.6468959884811 1839.8620553748597 388.6468959884811Q1841.0178771680953 388.6468959884811 1841.242620294558 389.3211253678686L1841.242620294558 389.3211253678686L1895.7909877031007 504.22907531205664Q1901.1206104163548 515.5304439570284 1905.2623051754495 521.8874638198251Q1909.4361060954675 528.2444836826218 1913.4814823717925 530.6845519127861Q1917.526858648118 533.1246201429506 1922.3748889475232 533.1246201429506Z " fill="#ffd230" transform="matrix(0.45494578636428934,0,0,0.4549457863642893,0,89.06580280633919)"/></g></svg>